<?xml version="1.0" encoding="UTF-8" standalone="no"?>
<!DOCTYPE svg PUBLIC "-//W3C//DTD SVG 1.1//EN" "http://www.w3.org/Graphics/SVG/1.1/DTD/svg11.dtd">
<svg width="100%" height="100%" viewBox="0 0 1280 800" version="1.1" xmlns="http://www.w3.org/2000/svg" xmlns:xlink="http://www.w3.org/1999/xlink" xml:space="preserve" xmlns:serif="http://www.serif.com/" style="fill-rule:evenodd;clip-rule:evenodd;stroke-linejoin:round;stroke-miterlimit:2;">
    <g transform="matrix(0.988027,0,0,0.988027,3.38386,4.79055)">
        <path d="M472.405,641.086L436.476,641.086C278.354,641.086 149.979,533.058 149.979,399.998C149.979,266.937 278.354,158.909 436.476,158.909C449.425,158.909 459.228,158.46 444.306,206.109C440.491,218.293 413.777,301.788 413.777,301.788L556.522,301.238L603.34,158.909C615.16,124.015 646.31,36.528 533.614,36.696C532.623,36.698 531.628,36.699 530.63,36.701C454.268,36.701 418.873,36.696 379.83,36.696C179.318,36.696 16.528,199.486 16.528,399.998C16.528,600.509 179.318,763.299 379.83,763.299L551.678,763.299L552.937,763.299L553.693,763.299C585.957,763.291 606.631,743.546 620.854,700.271C629.402,674.263 640,641.086 640,641.086L774.995,188.65C780.867,169.005 795.232,158.901 815.225,158.911L852.185,158.911C1010.31,158.911 1138.68,266.94 1138.68,400C1138.68,533.06 1010.31,641.089 852.185,641.089C839.237,641.089 829.434,641.538 844.356,593.889C848.171,581.704 874.885,498.21 874.885,498.21L732.139,498.76L685.322,641.089C673.502,675.982 642.352,763.47 755.048,763.301C756.039,763.3 757.034,763.298 758.032,763.297C834.394,763.297 869.789,763.301 908.832,763.301C1109.34,763.301 1272.13,600.511 1272.13,400C1272.13,199.489 1109.34,36.699 908.832,36.699L736.984,36.699L735.725,36.699L734.969,36.699C702.705,36.707 682.031,56.452 667.808,99.727C659.26,125.735 648.662,158.911 648.662,158.911L510.844,612.696C504.785,632.991 492.485,641.037 472.405,641.086" style="fill:rgb(4,175,236);"/>
    </g>
</svg>
